<?xml version="1.0" encoding="utf-8"?>
<!-- Generator: Adobe Illustrator 16.0.4, SVG Export Plug-In . SVG Version: 6.00 Build 0)  -->
<!DOCTYPE svg PUBLIC "-//W3C//DTD SVG 1.1//EN" "http://www.w3.org/Graphics/SVG/1.1/DTD/svg11.dtd">
<svg version="1.1" id="Layer_1" xmlns="http://www.w3.org/2000/svg" xmlns:xlink="http://www.w3.org/1999/xlink" x="0px" y="0px"
	 width="50px" height="50px" viewBox="0 0 50 50" enable-background="new 0 0 50 50" xml:space="preserve">
<g>
	<g>
		<g>
			<path fill="#FFFFFF" d="M21.201,35.815c-2.038,0-3.693-1.658-3.694-3.695c0-0.986,0.383-1.914,1.082-2.611
				c0.699-0.698,1.626-1.082,2.613-1.082c2.036,0,3.694,1.656,3.694,3.693c0,0.986-0.384,1.914-1.082,2.612
				C23.115,35.43,22.187,35.815,21.201,35.815L21.201,35.815z M21.201,30.357c-0.472,0-0.914,0.185-1.247,0.517
				s-0.516,0.776-0.516,1.246c0.001,0.973,0.792,1.762,1.763,1.762c0.471,0,0.914-0.183,1.248-0.516
				c0.332-0.333,0.515-0.775,0.515-1.246C22.963,31.148,22.171,30.357,21.201,30.357L21.201,30.357z"/>
		</g>
		<g>
			<path fill="#FFFFFF" d="M22.077,29.264l-1.918-0.228c0.012-0.092,1.203-9.136,11.547-10.536l0.258,1.913
				C23.085,21.615,22.087,29.187,22.077,29.264L22.077,29.264z"/>
		</g>
		<g>
			<path fill="#FFFFFF" d="M27.771,25.149c-0.229,0-0.458-0.082-0.643-0.245c-0.396-0.355-0.433-0.965-0.078-1.363l3.375-3.787
				l-4.563-1.472c-0.508-0.164-0.787-0.708-0.624-1.216c0.165-0.507,0.709-0.785,1.216-0.621l5.973,1.926
				c0.311,0.101,0.551,0.351,0.636,0.667c0.085,0.314,0.006,0.651-0.211,0.895l-4.361,4.893
				C28.302,25.04,28.037,25.149,27.771,25.149L27.771,25.149z"/>
		</g>
	</g>
	<g>
		<g>
			<polygon fill="#FFFFFF" points="31.669,33.767 26.125,28.088 27.507,26.739 33.051,32.418 31.669,33.767 			"/>
		</g>
		<g>
			<polygon fill="#FFFFFF" points="27.423,33.716 26.074,32.335 31.755,26.792 33.103,28.172 27.423,33.716 			"/>
		</g>
	</g>
	<g>
		<g>
			<polygon fill="#FFFFFF" points="20.407,24.542 14.865,18.864 16.245,17.516 21.789,23.193 20.407,24.542 			"/>
		</g>
		<g>
			<polygon fill="#FFFFFF" points="16.162,24.492 14.813,23.11 20.493,17.566 21.842,18.947 16.162,24.492 			"/>
		</g>
	</g>
	<path fill="#FFFFFF" d="M39.193,20.077c-0.497,0.54-1.206,0.882-1.997,0.882c-0.153,0-0.298-0.021-0.444-0.044
		c0.432,1.284,0.676,2.654,0.676,4.083c0,7.097-5.773,12.871-12.871,12.871c-7.097,0-12.87-5.774-12.87-12.871
		c0-7.097,5.772-12.871,12.87-12.871c4.127,0,7.798,1.959,10.153,4.99c0.37-0.822,1.132-1.422,2.05-1.57
		c-2.829-3.643-7.246-5.995-12.204-5.995c-8.516,0-15.445,6.929-15.445,15.446c0,8.515,6.929,15.444,15.445,15.444
		c8.517,0,15.444-6.929,15.444-15.444C40.001,23.277,39.715,21.623,39.193,20.077z"/>
	<path fill="#FFFFFF" d="M37.196,21.925c-0.987,0-1.914-0.385-2.612-1.082s-1.081-1.626-1.081-2.612
		c0-0.986,0.383-1.915,1.081-2.612s1.625-1.083,2.612-1.083c2.036,0,3.692,1.657,3.692,3.693c0,0.986-0.383,1.915-1.081,2.612
		C39.11,21.54,38.183,21.925,37.196,21.925L37.196,21.925z M37.196,16.468c-0.472,0-0.914,0.184-1.248,0.518
		c-0.333,0.331-0.515,0.775-0.515,1.246s0.182,0.913,0.515,1.246c0.667,0.666,1.828,0.666,2.493,0
		c0.333-0.333,0.517-0.776,0.517-1.247C38.958,17.259,38.168,16.468,37.196,16.468L37.196,16.468z"/>
</g>
</svg>
