<?xml version="1.0" encoding="utf-8"?>
<!-- Generator: Adobe Illustrator 16.0.4, SVG Export Plug-In . SVG Version: 6.00 Build 0)  -->
<!DOCTYPE svg PUBLIC "-//W3C//DTD SVG 1.1//EN" "http://www.w3.org/Graphics/SVG/1.1/DTD/svg11.dtd">
<svg version="1.1" id="Layer_1" xmlns="http://www.w3.org/2000/svg" xmlns:xlink="http://www.w3.org/1999/xlink" x="0px" y="0px"
	 width="50px" height="50px" viewBox="0 0 50 50" enable-background="new 0 0 50 50" xml:space="preserve">
<g>
	<path fill="#FFFFFF" d="M30.546,19.68c-1.431-1.4-3.386-2.267-5.546-2.267s-4.116,0.866-5.546,2.267H2.336l3.399,4.532h3.117
		l2.549,3.4h1.983l2.55,3.399h3.519c1.43,1.4,3.386,2.267,5.546,2.267s4.116-0.866,5.546-2.267h3.519l2.549-3.399h1.983l2.549-3.4
		h3.116l3.399-4.532H30.546z M18.496,29.878h-1.995l-1.7-2.267h1.701l-0.755-1.133h-3.778l-1.7-2.267h3.967l-0.755-1.133H6.302
		l-1.699-2.266h13.893c-0.897,1.285-1.428,2.846-1.428,4.532C17.067,27.031,17.598,28.592,18.496,29.878z M25,31.011
		c-3.124,0-5.666-2.541-5.666-5.666S21.876,19.68,25,19.68c3.125,0,5.666,2.541,5.666,5.666S28.125,31.011,25,31.011z
		 M43.698,23.079h-7.176l-0.755,1.133h3.964l-1.7,2.267h-3.775L33.5,27.612h1.698l-1.699,2.267h-1.995
		c0.897-1.286,1.428-2.847,1.428-4.533c0-1.687-0.531-3.248-1.428-4.532h13.892L43.698,23.079z"/>
	<polygon fill="#FFFFFF" points="25,21.195 26.209,23.702 28.966,24.078 26.955,26.001 27.451,28.74 25,27.422 22.549,28.74 
		23.044,26.001 21.033,24.078 23.792,23.702 	"/>
</g>
</svg>
