<?xml version="1.0" encoding="utf-8"?>
<!-- Generator: Adobe Illustrator 16.0.4, SVG Export Plug-In . SVG Version: 6.00 Build 0)  -->
<!DOCTYPE svg PUBLIC "-//W3C//DTD SVG 1.1//EN" "http://www.w3.org/Graphics/SVG/1.1/DTD/svg11.dtd">
<svg version="1.1" id="Layer_1" xmlns="http://www.w3.org/2000/svg" xmlns:xlink="http://www.w3.org/1999/xlink" x="0px" y="0px"
	 width="50px" height="50px" viewBox="0 0 50 50" enable-background="new 0 0 50 50" xml:space="preserve">
<path fill="#FFFFFF" d="M38.223,28.609c0.212-0.221,0.405-0.454,0.588-0.691l0.847,1.883l7.535-3.385l-6.264-13.939l-7.533,3.385
	l0.465,1.036l-1.276-0.338l0,0c-0.016-0.004-0.053-0.013-0.104-0.027l-0.704-0.186c-0.192-0.053-0.402-0.073-0.622-0.079
	c-1.99-0.328-5.603-0.626-7.939,0.955c-0.225,0.153-0.458,0.29-0.69,0.423c-0.643-0.452-1.378-0.641-2.084-0.451l-3.03,0.781
	l-0.232-0.14l0.886-1.973l-7.533-3.385L4.271,26.417l7.536,3.385l0.835-1.859c0.369,0.575,0.811,1.101,1.29,1.565
	c-0.325,0.454-0.463,1.004-0.385,1.557c0.149,1.057,1.068,1.854,2.136,1.854c0.101,0,0.203-0.007,0.306-0.022
	c0.187-0.025,0.361-0.084,0.527-0.153c-0.01,0.147-0.005,0.297,0.016,0.446c0.152,1.057,1.07,1.854,2.136,1.854
	c0.102,0,0.203-0.007,0.306-0.022c0.188-0.025,0.362-0.083,0.528-0.155c-0.009,0.149-0.006,0.298,0.017,0.446
	c0.149,1.059,1.068,1.855,2.135,1.855c0.1,0,0.202-0.006,0.305-0.021c0.653-0.093,1.189-0.475,1.516-0.994l3.044,1.835
	c0.736,0.443,1.696,0.205,2.142-0.531c0.444-0.738,0.206-1.7-0.532-2.143l-0.038-0.023c0.177-0.052,0.342-0.132,0.513-0.199
	l1.569,0.945c0.244,0.146,0.52,0.224,0.804,0.224c0.545,0,1.059-0.289,1.338-0.755c0.215-0.355,0.278-0.778,0.177-1.181
	c-0.1-0.406-0.352-0.747-0.708-0.962l-0.359-0.216c0.113-0.092,0.228-0.187,0.342-0.28l1.408,0.849
	c0.242,0.145,0.52,0.223,0.802,0.223c0.544,0,1.057-0.289,1.339-0.755c0.436-0.725,0.211-1.66-0.495-2.114l0.403-0.26l0.649,0.392
	c0.243,0.145,0.52,0.223,0.801,0.223c0.544,0,1.058-0.291,1.34-0.755c0.342-0.566,0.275-1.264-0.106-1.761
	c0.065-0.062,0.125-0.11,0.196-0.18L38.223,28.609z M11.115,27.982L6.09,25.726l5.136-11.428l5.023,2.256L11.115,27.982z
	 M40.239,14.298l5.134,11.428l-5.025,2.256l-5.133-11.428L40.239,14.298z M24.312,18.045c0.146-0.067,0.301-0.119,0.455-0.172
	c0.165-0.059,0.333-0.113,0.505-0.158c0.156-0.042,0.312-0.082,0.473-0.113c0.192-0.039,0.388-0.07,0.583-0.097
	c0.14-0.021,0.279-0.043,0.418-0.057c0.315-0.03,0.633-0.05,0.946-0.058c0.02,0,0.042-0.002,0.062-0.002c0.005,0,0.011,0,0.016,0
	c1.206-0.021,2.354,0.115,3.194,0.253l0.029-0.001c0.618,0.102,1.042,0.2,1.177,0.233l2.3,0.609l0.08-0.047l3.605,8.025
	c-0.267,0.415-0.567,0.824-0.93,1.199l-0.117,0.12c-0.109,0.111-0.225,0.213-0.343,0.315l-9.22-5.554
	c-0.18-0.124-0.358-0.244-0.538-0.366c-0.214-0.06-0.405-0.099-0.598-0.139c0.003-0.003,0.005-0.006,0.007-0.009
	C26.36,22.015,26.31,22.01,26.253,22c-0.064-0.013-0.125-0.021-0.188-0.032c-0.176-0.029-0.346-0.05-0.507-0.064
	c-0.058-0.003-0.117-0.007-0.172-0.011c-0.162-0.008-0.318-0.008-0.464,0c-0.039,0.002-0.081,0.002-0.119,0.004
	c-0.368,0.028-0.695,0.097-0.995,0.195c-0.03,0.009-0.057,0.021-0.086,0.029c-0.119,0.041-0.237,0.085-0.353,0.131
	c-0.04,0.018-0.081,0.035-0.122,0.053c-0.106,0.046-0.214,0.093-0.319,0.143c-0.157,0.071-0.315,0.147-0.477,0.222
	c-1.497,0.683-2.694,0.689-3.418,0.382c-0.15-0.064-0.275-0.142-0.385-0.227c-0.035-0.03-0.074-0.059-0.105-0.092
	c-0.03-0.031-0.059-0.064-0.086-0.1c-0.059-0.076-0.111-0.156-0.14-0.24c-0.065-0.188-0.498-1.693,0.22-1.839
	c0.439-0.091,2.881-0.673,4.953-2.075C23.744,18.306,24.023,18.169,24.312,18.045z M15.847,31.91
	c-0.635,0.096-1.226-0.361-1.315-0.984c-0.042-0.309,0.035-0.615,0.222-0.862c0.186-0.249,0.458-0.408,0.766-0.453
	c0.057-0.008,0.112-0.012,0.166-0.012c0.574,0,1.067,0.43,1.148,0.999C16.923,31.231,16.481,31.821,15.847,31.91z M18.833,34.036
	c-0.64,0.089-1.226-0.362-1.315-0.987c-0.043-0.307,0.036-0.613,0.222-0.861c0.186-0.248,0.458-0.41,0.768-0.453
	c0.055-0.007,0.111-0.012,0.165-0.012c0.573,0,1.068,0.43,1.148,1C19.91,33.357,19.466,33.946,18.833,34.036z M21.817,36.162
	c-0.641,0.094-1.225-0.363-1.314-0.986c-0.043-0.309,0.035-0.614,0.222-0.863c0.188-0.247,0.458-0.408,0.767-0.451
	c0.057-0.007,0.112-0.012,0.165-0.012c0.573,0,1.066,0.431,1.149,0.999C22.895,35.483,22.454,36.071,21.817,36.162z"/>
</svg>
